<svg xmlns="http://www.w3.org/2000/svg" xmlns:xlink="http://www.w3.org/1999/xlink" width="192" zoomAndPan="magnify" viewBox="0 0 144 143.999998" height="192" preserveAspectRatio="xMidYMid meet" version="1.0"><defs><clipPath id="6356a1a0fb"><path d="M 57 68 L 88 68 L 88 94.195312 L 57 94.195312 Z M 57 68 " clip-rule="nonzero"/></clipPath><clipPath id="7bdaf8b17a"><path d="M 59 49.945312 L 71 49.945312 L 71 68 L 59 68 Z M 59 49.945312 " clip-rule="nonzero"/></clipPath><clipPath id="5f1f62df9c"><path d="M 49.496094 63 L 61 63 L 61 78 L 49.496094 78 Z M 49.496094 63 " clip-rule="nonzero"/></clipPath><clipPath id="3b3d9221af"><path d="M 82 63 L 94.496094 63 L 94.496094 76 L 82 76 Z M 82 63 " clip-rule="nonzero"/></clipPath></defs><g clip-path="url(#6356a1a0fb)"><path fill="#efe8d5" d="M 62.273438 93.730469 C 65.71875 94.625 67.605469 93.230469 70.570312 92.410156 C 73.925781 91.46875 76.191406 92.933594 79.167969 92.933594 C 84.988281 92.933594 88.414062 86.96875 87.320312 82.804688 C 86.101562 78.183594 83.464844 78.203125 80.46875 74.113281 C 79.363281 72.609375 77.992188 70.734375 74.390625 69.390625 C 73.527344 69.066406 72.644531 68.902344 71.765625 68.902344 C 67.957031 68.902344 66.238281 71.449219 64.464844 74.457031 C 61.164062 80.050781 58.984375 79.054688 57.589844 83.421875 C 56.371094 87.21875 59.492188 93.007812 62.273438 93.730469 Z M 62.273438 93.730469 " fill-opacity="1" fill-rule="nonzero"/></g><path fill="#efe8d5" d="M 79.765625 50.582031 C 77.269531 50.582031 73.785156 54.828125 73.882812 60.183594 C 73.867188 63.292969 75.203125 66.511719 78.308594 66.511719 C 82.6875 66.511719 85.828125 59.742188 84.355469 54.980469 C 83.453125 52.058594 81.054688 50.582031 79.765625 50.582031 Z M 79.765625 50.582031 " fill-opacity="1" fill-rule="nonzero"/><g clip-path="url(#7bdaf8b17a)"><path fill="#efe8d5" d="M 69.753906 64.761719 C 73.144531 58.566406 68.292969 47.929688 62.542969 50.3125 C 61.1875 50.878906 60.183594 53.09375 59.695312 54.976562 C 59.308594 56.460938 59.421875 58.050781 59.488281 59.414062 C 59.546875 60.78125 60.558594 63.140625 61.230469 64.164062 C 63.925781 68.273438 68.011719 67.929688 69.753906 64.761719 Z M 69.753906 64.761719 " fill-opacity="1" fill-rule="nonzero"/></g><g clip-path="url(#5f1f62df9c)"><path fill="#efe8d5" d="M 56.851562 77.277344 C 57.78125 77.25 59.277344 76.492188 59.9375 75.449219 C 62.503906 71.378906 59.417969 63.257812 53.9375 63.257812 C 46.511719 63.257812 49.023438 77.5 56.851562 77.277344 Z M 56.851562 77.277344 " fill-opacity="1" fill-rule="nonzero"/></g><g clip-path="url(#3b3d9221af)"><path fill="#efe8d5" d="M 91.265625 63.652344 C 89.378906 62.78125 86.882812 63.769531 85.320312 65.34375 C 81.976562 68.703125 81.835938 75.578125 87.203125 75.578125 C 86.984375 75.578125 88.847656 75.765625 91.019531 74.335938 C 95.425781 71.503906 95.796875 65.683594 91.265625 63.652344 Z M 91.265625 63.652344 " fill-opacity="1" fill-rule="nonzero"/></g></svg>