<svg xmlns="http://www.w3.org/2000/svg" xmlns:xlink="http://www.w3.org/1999/xlink" width="378" zoomAndPan="magnify" viewBox="0 0 283.5 283.500005" height="378" preserveAspectRatio="xMidYMid meet" version="1.0"><defs><g/><clipPath id="9ffd8d1ad4"><path d="M 70 0.0625 L 273.148438 0.0625 L 273.148438 96.132812 L 70 96.132812 Z M 70 0.0625 " clip-rule="nonzero"/></clipPath><clipPath id="14d56876a6"><rect x="0" width="204" y="0" height="97"/></clipPath><clipPath id="7cb0736f3b"><path d="M 23 44 L 54 44 L 54 74 L 23 74 Z M 23 44 " clip-rule="nonzero"/></clipPath><clipPath id="85f5b0f999"><path d="M 1.203125 35.757812 L 45.335938 17.082031 L 63.71875 60.527344 L 19.585938 79.203125 Z M 1.203125 35.757812 " clip-rule="nonzero"/></clipPath><clipPath id="21d4d9f7fa"><path d="M 1.203125 35.757812 L 45.335938 17.082031 L 63.71875 60.527344 L 19.585938 79.203125 Z M 1.203125 35.757812 " clip-rule="nonzero"/></clipPath><clipPath id="a837ef4882"><path d="M 28 23 L 41 23 L 41 41 L 28 41 Z M 28 23 " clip-rule="nonzero"/></clipPath><clipPath id="a1b0468ec7"><path d="M 1.203125 35.757812 L 45.335938 17.082031 L 63.71875 60.527344 L 19.585938 79.203125 Z M 1.203125 35.757812 " clip-rule="nonzero"/></clipPath><clipPath id="a879d02b7c"><path d="M 1.203125 35.757812 L 45.335938 17.082031 L 63.71875 60.527344 L 19.585938 79.203125 Z M 1.203125 35.757812 " clip-rule="nonzero"/></clipPath><clipPath id="62e704cd89"><path d="M 13 29 L 28 29 L 28 47 L 13 47 Z M 13 29 " clip-rule="nonzero"/></clipPath><clipPath id="a5c4dd4eae"><path d="M 1.203125 35.757812 L 45.335938 17.082031 L 63.71875 60.527344 L 19.585938 79.203125 Z M 1.203125 35.757812 " clip-rule="nonzero"/></clipPath><clipPath id="3b6a5c4b47"><path d="M 1.203125 35.757812 L 45.335938 17.082031 L 63.71875 60.527344 L 19.585938 79.203125 Z M 1.203125 35.757812 " clip-rule="nonzero"/></clipPath><clipPath id="0a8b33e9f5"><path d="M 8 46 L 23 46 L 23 61 L 8 61 Z M 8 46 " clip-rule="nonzero"/></clipPath><clipPath id="1c8bb6fe94"><path d="M 1.203125 35.757812 L 45.335938 17.082031 L 63.71875 60.527344 L 19.585938 79.203125 Z M 1.203125 35.757812 " clip-rule="nonzero"/></clipPath><clipPath id="9c8d6e0dd7"><path d="M 1.203125 35.757812 L 45.335938 17.082031 L 63.71875 60.527344 L 19.585938 79.203125 Z M 1.203125 35.757812 " clip-rule="nonzero"/></clipPath><clipPath id="67c65f2489"><path d="M 42 31 L 54 31 L 54 46 L 42 46 Z M 42 31 " clip-rule="nonzero"/></clipPath><clipPath id="0b0c5a8ae8"><path d="M 1.203125 35.757812 L 45.335938 17.082031 L 63.71875 60.527344 L 19.585938 79.203125 Z M 1.203125 35.757812 " clip-rule="nonzero"/></clipPath><clipPath id="7f1c43ffc7"><path d="M 1.203125 35.757812 L 45.335938 17.082031 L 63.71875 60.527344 L 19.585938 79.203125 Z M 1.203125 35.757812 " clip-rule="nonzero"/></clipPath><clipPath id="5db5154b6d"><rect x="0" width="274" y="0" height="97"/></clipPath></defs><g transform="matrix(1, 0, 0, 1, 5, 79)"><g clip-path="url(#5db5154b6d)"><g clip-path="url(#9ffd8d1ad4)"><g transform="matrix(1, 0, 0, 1, 70, 0.000000000000014211)"><g clip-path="url(#14d56876a6)"><g fill="#393833" fill-opacity="1"><g transform="translate(0.542958, 75.576496)"><g><path d="M 16 -15.46875 L 16 -7.09375 C 16 -4.769531 15.382812 -3.003906 14.15625 -1.796875 C 12.9375 -0.597656 11.320312 0 9.3125 0 L 9.234375 0 C 7.046875 0 5.316406 -0.597656 4.046875 -1.796875 C 2.773438 -3.003906 2.140625 -4.769531 2.140625 -7.09375 L 2.140625 -16.546875 C 2.140625 -21.273438 2.851562 -24.863281 4.28125 -27.3125 C 5.707031 -29.769531 7.515625 -31.535156 9.703125 -32.609375 L 9.375 -33.890625 L 8.234375 -33.890625 C 6.179688 -33.890625 4.5625 -34.546875 3.375 -35.859375 C 2.195312 -37.179688 1.585938 -38.976562 1.546875 -41.25 C 1.492188 -43.476562 2.082031 -45.285156 3.3125 -46.671875 C 4.539062 -48.054688 6.179688 -48.75 8.234375 -48.75 L 25.84375 -48.75 C 30.351562 -48.75 34.023438 -47.398438 36.859375 -44.703125 C 39.703125 -42.003906 41.125 -37.75 41.125 -31.9375 C 41.125 -27.75 40.382812 -24.445312 38.90625 -22.03125 C 37.4375 -19.625 35.492188 -17.925781 33.078125 -16.9375 C 30.671875 -15.957031 28.0625 -15.46875 25.25 -15.46875 Z M 15.140625 -28.390625 C 15.140625 -27.410156 15.328125 -26.765625 15.703125 -26.453125 C 16.078125 -26.140625 16.757812 -25.984375 17.75 -25.984375 L 23.96875 -25.984375 C 25.84375 -25.984375 27.203125 -26.414062 28.046875 -27.28125 C 28.898438 -28.15625 29.328125 -29.394531 29.328125 -31 C 29.328125 -32.613281 28.898438 -33.84375 28.046875 -34.6875 C 27.203125 -35.539062 25.84375 -35.96875 23.96875 -35.96875 L 17.75 -35.96875 C 16.757812 -35.96875 16.078125 -35.832031 15.703125 -35.5625 C 15.328125 -35.289062 15.140625 -34.644531 15.140625 -33.625 Z M 15.140625 -28.390625 "/></g></g></g><g fill="#393833" fill-opacity="1"><g transform="translate(37.639484, 75.576496)"><g><path d="M 7.5625 0 C 4.570312 -0.445312 2.628906 -1.816406 1.734375 -4.109375 C 0.847656 -6.410156 1.03125 -9.328125 2.28125 -12.859375 L 11.109375 -37.96875 C 11.921875 -40.289062 12.847656 -42.273438 13.890625 -43.921875 C 14.941406 -45.578125 16.257812 -46.851562 17.84375 -47.75 C 19.425781 -48.644531 21.40625 -49.09375 23.78125 -49.09375 C 27.34375 -49.09375 30.03125 -48.109375 31.84375 -46.140625 C 33.65625 -44.171875 35.160156 -41.445312 36.359375 -37.96875 L 45.140625 -12.859375 C 46.390625 -9.328125 46.625 -6.410156 45.84375 -4.109375 C 45.0625 -1.816406 43.148438 -0.445312 40.109375 0 C 37.660156 0.3125 35.53125 0.0234375 33.71875 -0.859375 C 31.90625 -1.753906 30.820312 -3.207031 30.46875 -5.21875 C 30.195312 -6.5625 30.160156 -7.675781 30.359375 -8.5625 C 30.566406 -9.457031 30.757812 -10.175781 30.9375 -10.71875 C 31.070312 -11.164062 31.082031 -11.597656 30.96875 -12.015625 C 30.863281 -12.441406 30.519531 -12.65625 29.9375 -12.65625 L 17.484375 -12.65625 C 16.898438 -12.65625 16.550781 -12.441406 16.4375 -12.015625 C 16.320312 -11.597656 16.359375 -11.164062 16.546875 -10.71875 C 16.722656 -10.175781 16.898438 -9.457031 17.078125 -8.5625 C 17.253906 -7.675781 17.234375 -6.5625 17.015625 -5.21875 C 16.648438 -3.207031 15.597656 -1.753906 13.859375 -0.859375 C 12.117188 0.0234375 10.019531 0.3125 7.5625 0 Z M 28.65625 -22.03125 L 25.1875 -32.953125 C 25.09375 -33.398438 24.941406 -33.742188 24.734375 -33.984375 C 24.535156 -34.234375 24.21875 -34.359375 23.78125 -34.359375 C 23.332031 -34.359375 23.003906 -34.234375 22.796875 -33.984375 C 22.597656 -33.742188 22.429688 -33.398438 22.296875 -32.953125 L 18.890625 -22.03125 Z M 28.65625 -22.03125 "/></g></g></g><g fill="#393833" fill-opacity="1"><g transform="translate(76.20883, 75.576496)"><g><path d="M 8.171875 -33.890625 C 5.941406 -33.890625 4.125 -34.535156 2.71875 -35.828125 C 1.3125 -37.117188 0.609375 -38.90625 0.609375 -41.1875 C 0.609375 -43.414062 1.242188 -45.210938 2.515625 -46.578125 C 3.785156 -47.941406 5.671875 -48.625 8.171875 -48.625 L 37.03125 -48.625 C 39.53125 -48.625 41.414062 -47.941406 42.6875 -46.578125 C 43.957031 -45.210938 44.59375 -43.414062 44.59375 -41.1875 C 44.59375 -38.90625 43.890625 -37.117188 42.484375 -35.828125 C 41.078125 -34.535156 39.257812 -33.890625 37.03125 -33.890625 C 35.507812 -33.890625 34.289062 -34.054688 33.375 -34.390625 C 32.46875 -34.722656 31.722656 -35.125 31.140625 -35.59375 C 30.554688 -36.0625 29.992188 -36.460938 29.453125 -36.796875 C 28.921875 -37.128906 28.253906 -37.296875 27.453125 -37.296875 L 26.859375 -36.09375 C 27.035156 -35.695312 27.347656 -35.128906 27.796875 -34.390625 C 28.242188 -33.648438 28.664062 -32.597656 29.0625 -31.234375 C 29.46875 -29.878906 29.671875 -28.039062 29.671875 -25.71875 L 29.671875 -6.359375 C 29.671875 -4.523438 28.988281 -3.003906 27.625 -1.796875 C 26.257812 -0.597656 24.597656 0 22.640625 0 C 20.628906 0 18.941406 -0.597656 17.578125 -1.796875 C 16.210938 -3.003906 15.53125 -4.523438 15.53125 -6.359375 L 15.53125 -25.71875 C 15.53125 -28.039062 15.726562 -29.878906 16.125 -31.234375 C 16.53125 -32.597656 16.96875 -33.648438 17.4375 -34.390625 C 17.914062 -35.128906 18.242188 -35.695312 18.421875 -36.09375 L 17.75 -37.296875 C 16.945312 -37.296875 16.273438 -37.128906 15.734375 -36.796875 C 15.203125 -36.460938 14.644531 -36.0625 14.0625 -35.59375 C 13.476562 -35.125 12.738281 -34.722656 11.84375 -34.390625 C 10.957031 -34.054688 9.734375 -33.890625 8.171875 -33.890625 Z M 8.171875 -33.890625 "/></g></g></g><g fill="#393833" fill-opacity="1"><g transform="translate(111.831792, 75.576496)"><g><path d="M 7.5625 0 C 4.570312 -0.445312 2.628906 -1.816406 1.734375 -4.109375 C 0.847656 -6.410156 1.03125 -9.328125 2.28125 -12.859375 L 11.109375 -37.96875 C 11.921875 -40.289062 12.847656 -42.273438 13.890625 -43.921875 C 14.941406 -45.578125 16.257812 -46.851562 17.84375 -47.75 C 19.425781 -48.644531 21.40625 -49.09375 23.78125 -49.09375 C 27.34375 -49.09375 30.03125 -48.109375 31.84375 -46.140625 C 33.65625 -44.171875 35.160156 -41.445312 36.359375 -37.96875 L 45.140625 -12.859375 C 46.390625 -9.328125 46.625 -6.410156 45.84375 -4.109375 C 45.0625 -1.816406 43.148438 -0.445312 40.109375 0 C 37.660156 0.3125 35.53125 0.0234375 33.71875 -0.859375 C 31.90625 -1.753906 30.820312 -3.207031 30.46875 -5.21875 C 30.195312 -6.5625 30.160156 -7.675781 30.359375 -8.5625 C 30.566406 -9.457031 30.757812 -10.175781 30.9375 -10.71875 C 31.070312 -11.164062 31.082031 -11.597656 30.96875 -12.015625 C 30.863281 -12.441406 30.519531 -12.65625 29.9375 -12.65625 L 17.484375 -12.65625 C 16.898438 -12.65625 16.550781 -12.441406 16.4375 -12.015625 C 16.320312 -11.597656 16.359375 -11.164062 16.546875 -10.71875 C 16.722656 -10.175781 16.898438 -9.457031 17.078125 -8.5625 C 17.253906 -7.675781 17.234375 -6.5625 17.015625 -5.21875 C 16.648438 -3.207031 15.597656 -1.753906 13.859375 -0.859375 C 12.117188 0.0234375 10.019531 0.3125 7.5625 0 Z M 28.65625 -22.03125 L 25.1875 -32.953125 C 25.09375 -33.398438 24.941406 -33.742188 24.734375 -33.984375 C 24.535156 -34.234375 24.21875 -34.359375 23.78125 -34.359375 C 23.332031 -34.359375 23.003906 -34.234375 22.796875 -33.984375 C 22.597656 -33.742188 22.429688 -33.398438 22.296875 -32.953125 L 18.890625 -22.03125 Z M 28.65625 -22.03125 "/></g></g></g><g fill="#393833" fill-opacity="1"><g transform="translate(158.638202, 75.576496)"><g><path d="M 22.765625 0.203125 C 20.265625 0.203125 17.753906 -0.0507812 15.234375 -0.5625 C 12.710938 -1.082031 10.390625 -1.84375 8.265625 -2.84375 C 6.148438 -3.851562 4.441406 -5.082031 3.140625 -6.53125 C 1.847656 -7.976562 1.203125 -9.660156 1.203125 -11.578125 C 1.203125 -14.035156 1.984375 -16 3.546875 -17.46875 C 5.109375 -18.945312 6.941406 -19.644531 9.046875 -19.5625 C 10.691406 -19.507812 12.335938 -19.160156 13.984375 -18.515625 C 15.640625 -17.867188 17.328125 -17.234375 19.046875 -16.609375 C 20.765625 -15.984375 22.5 -15.671875 24.25 -15.671875 C 25.988281 -15.671875 27.191406 -15.894531 27.859375 -16.34375 C 28.523438 -16.789062 28.859375 -17.394531 28.859375 -18.15625 C 28.859375 -19.039062 28.390625 -19.773438 27.453125 -20.359375 C 26.515625 -20.941406 25.332031 -21.390625 23.90625 -21.703125 L 20.625 -22.5 C 17.226562 -23.300781 14.191406 -24.203125 11.515625 -25.203125 C 8.835938 -26.210938 6.726562 -27.554688 5.1875 -29.234375 C 3.644531 -30.910156 2.875 -33.15625 2.875 -35.96875 C 2.875 -39.039062 3.722656 -41.546875 5.421875 -43.484375 C 7.117188 -45.429688 9.414062 -46.851562 12.3125 -47.75 C 15.21875 -48.644531 18.457031 -49.09375 22.03125 -49.09375 C 25.695312 -49.09375 28.910156 -48.710938 31.671875 -47.953125 C 34.441406 -47.191406 36.597656 -46.097656 38.140625 -44.671875 C 39.679688 -43.242188 40.453125 -41.5 40.453125 -39.4375 C 40.453125 -37.25 39.859375 -35.539062 38.671875 -34.3125 C 37.492188 -33.09375 35.921875 -32.484375 33.953125 -32.484375 C 32.660156 -32.484375 31.3125 -32.703125 29.90625 -33.140625 C 28.5 -33.585938 27.023438 -34.023438 25.484375 -34.453125 C 23.941406 -34.878906 22.300781 -35.09375 20.5625 -35.09375 C 19 -35.09375 17.8125 -34.859375 17 -34.390625 C 16.195312 -33.921875 15.796875 -33.304688 15.796875 -32.546875 C 15.796875 -31.609375 16.332031 -30.914062 17.40625 -30.46875 C 18.476562 -30.019531 20.242188 -29.484375 22.703125 -28.859375 L 26.453125 -28 C 29.535156 -27.238281 32.234375 -26.320312 34.546875 -25.25 C 36.867188 -24.175781 38.675781 -22.769531 39.96875 -21.03125 C 41.269531 -19.289062 41.921875 -17.015625 41.921875 -14.203125 C 41.921875 -10.804688 41.113281 -8.046875 39.5 -5.921875 C 37.894531 -3.804688 35.664062 -2.253906 32.8125 -1.265625 C 29.957031 -0.285156 26.609375 0.203125 22.765625 0.203125 Z M 22.765625 0.203125 "/></g></g></g></g></g></g><g clip-path="url(#7cb0736f3b)"><g clip-path="url(#85f5b0f999)"><g clip-path="url(#21d4d9f7fa)"><path fill="#393833" d="M 32.046875 73.574219 C 35.816406 73.019531 37.09375 70.859375 39.671875 68.816406 C 42.585938 66.488281 45.429688 66.984375 48.363281 65.742188 C 54.097656 63.316406 54.984375 56.011719 52.167969 52.367188 C 49.042969 48.320312 46.457031 49.441406 41.796875 46.660156 C 40.082031 45.636719 37.949219 44.363281 33.839844 44.539062 C 32.851562 44.582031 31.914062 44.789062 31.046875 45.152344 C 27.296875 46.742188 26.664062 49.964844 26.171875 53.671875 C 25.253906 60.558594 22.6875 60.484375 23.136719 65.367188 C 23.515625 69.617188 29.003906 74.019531 32.046875 73.574219 Z M 32.046875 73.574219 " fill-opacity="1" fill-rule="nonzero"/></g></g></g><g clip-path="url(#a837ef4882)"><g clip-path="url(#a1b0468ec7)"><g clip-path="url(#a879d02b7c)"><path fill="#393833" d="M 31.292969 23.769531 C 28.832031 24.808594 27.171875 30.445312 29.5 35.679688 C 30.78125 38.75 33.4375 41.363281 36.496094 40.070312 C 40.8125 38.242188 41.082031 30.265625 37.648438 26.1875 C 35.542969 23.683594 32.5625 23.230469 31.292969 23.769531 Z M 31.292969 23.769531 " fill-opacity="1" fill-rule="nonzero"/></g></g></g><g clip-path="url(#62e704cd89)"><g clip-path="url(#a5c4dd4eae)"><g clip-path="url(#3b6a5c4b47)"><path fill="#393833" d="M 27.339844 41.910156 C 28.097656 34.394531 18.886719 25.9375 14.210938 30.679688 C 13.113281 31.804688 13.046875 34.40625 13.351562 36.464844 C 13.585938 38.089844 14.363281 39.605469 14.996094 40.925781 C 15.625 42.246094 17.605469 44.148438 18.695312 44.875 C 23.0625 47.804688 26.945312 45.757812 27.339844 41.910156 Z M 27.339844 41.910156 " fill-opacity="1" fill-rule="nonzero"/></g></g></g><g clip-path="url(#0a8b33e9f5)"><g clip-path="url(#1c8bb6fe94)"><g clip-path="url(#9c8d6e0dd7)"><path fill="#393833" d="M 19.84375 59.621094 C 20.75 59.210938 21.90625 57.839844 22.125 56.535156 C 22.957031 51.457031 16.527344 44.742188 11.128906 47.027344 C 3.8125 50.121094 12.226562 63.105469 19.84375 59.621094 Z M 19.84375 59.621094 " fill-opacity="1" fill-rule="nonzero"/></g></g></g><g clip-path="url(#67c65f2489)"><g clip-path="url(#0b0c5a8ae8)"><g clip-path="url(#7f1c43ffc7)"><path fill="#393833" d="M 48.074219 31.851562 C 45.851562 31.777344 43.804688 33.792969 42.917969 35.996094 C 41.027344 40.699219 43.753906 47.53125 49.039062 45.292969 C 48.824219 45.382812 50.742188 44.792969 52.28125 42.480469 C 55.445312 37.855469 53.382812 31.960938 48.074219 31.851562 Z M 48.074219 31.851562 " fill-opacity="1" fill-rule="nonzero"/></g></g></g></g></g></svg>