<svg xmlns="http://www.w3.org/2000/svg" xmlns:xlink="http://www.w3.org/1999/xlink" width="151" zoomAndPan="magnify" viewBox="0 0 113.25 113.249998" height="151" preserveAspectRatio="xMidYMid meet" version="1.0"><defs><clipPath id="2e06dc95b4"><path d="M 27 27 L 44.402344 27 L 44.402344 44.402344 L 27 44.402344 Z M 27 27 " clip-rule="nonzero"/></clipPath><clipPath id="4732e78533"><rect x="0" width="45" y="0" height="45"/></clipPath></defs><g transform="matrix(1, 0, 0, 1, 34, 34)"><g clip-path="url(#4732e78533)"><path fill="#05343e" d="M 18.335938 35.683594 C 17.632812 35.683594 16.933594 35.640625 16.234375 35.554688 C 15.535156 35.472656 14.84375 35.34375 14.164062 35.171875 C 13.480469 35 12.8125 34.789062 12.15625 34.535156 C 11.5 34.285156 10.859375 33.992188 10.238281 33.660156 C 9.617188 33.328125 9.019531 32.960938 8.445312 32.554688 C 7.871094 32.152344 7.320312 31.710938 6.800781 31.238281 C 6.28125 30.769531 5.789062 30.265625 5.328125 29.734375 C 4.871094 29.199219 4.445312 28.640625 4.054688 28.058594 C 3.664062 27.472656 3.308594 26.867188 2.992188 26.238281 C 2.675781 25.609375 2.398438 24.964844 2.164062 24.300781 C 1.925781 23.640625 1.730469 22.964844 1.574219 22.277344 C 1.421875 21.59375 1.308594 20.898438 1.242188 20.199219 C 1.171875 19.5 1.144531 18.796875 1.164062 18.09375 C 1.179688 17.390625 1.242188 16.691406 1.34375 15.996094 C 1.449219 15.300781 1.59375 14.613281 1.78125 13.933594 C 1.96875 13.257812 2.195312 12.59375 2.464844 11.941406 C 2.734375 11.292969 3.042969 10.660156 3.390625 10.050781 C 3.738281 9.4375 4.121094 8.847656 4.539062 8.285156 C 4.957031 7.71875 5.410156 7.183594 5.894531 6.671875 C 6.382812 6.164062 6.894531 5.6875 7.4375 5.238281 C 7.984375 4.792969 8.550781 4.382812 9.148438 4.007812 C 9.742188 3.628906 10.355469 3.292969 10.992188 2.992188 C 11.628906 2.691406 12.28125 2.429688 12.949219 2.210938 C 13.617188 1.988281 14.296875 1.8125 14.984375 1.675781 C 15.675781 1.539062 16.371094 1.441406 17.074219 1.390625 C 17.773438 1.339844 18.476562 1.332031 19.179688 1.367188 C 19.882812 1.402344 20.578125 1.480469 21.273438 1.601562 C 21.964844 1.722656 22.648438 1.882812 23.320312 2.089844 C 23.996094 2.292969 24.652344 2.539062 25.296875 2.824219 C 25.9375 3.109375 26.5625 3.433594 27.164062 3.792969 C 27.765625 4.15625 28.347656 4.554688 28.902344 4.988281 C 29.453125 5.421875 29.980469 5.886719 30.476562 6.382812 C 31.074219 6.980469 31.625 7.617188 32.128906 8.296875 C 32.632812 8.972656 33.082031 9.683594 33.480469 10.429688 C 33.878906 11.171875 34.222656 11.945312 34.503906 12.738281 C 34.789062 13.535156 35.015625 14.34375 35.179688 15.171875 C 35.34375 16 35.449219 16.835938 35.488281 17.679688 C 35.53125 18.523438 35.511719 19.367188 35.429688 20.207031 C 35.34375 21.046875 35.203125 21.875 34.996094 22.695312 C 34.792969 23.515625 34.527344 24.3125 34.203125 25.09375 C 33.878906 25.875 33.5 26.625 33.066406 27.351562 C 32.632812 28.074219 32.148438 28.761719 31.613281 29.414062 C 31.078125 30.066406 30.496094 30.675781 29.871094 31.242188 C 29.242188 31.8125 28.578125 32.328125 27.878906 32.796875 C 27.175781 33.265625 26.441406 33.679688 25.679688 34.042969 C 24.914062 34.402344 24.128906 34.703125 23.320312 34.949219 C 22.511719 35.195312 21.691406 35.378906 20.855469 35.5 C 20.019531 35.625 19.179688 35.683594 18.335938 35.683594 Z M 18.335938 5.128906 C 17.824219 5.128906 17.3125 5.15625 16.804688 5.214844 C 16.296875 5.269531 15.789062 5.355469 15.292969 5.472656 C 14.792969 5.585938 14.300781 5.730469 13.820312 5.902344 C 13.335938 6.074219 12.863281 6.273438 12.40625 6.5 C 11.945312 6.722656 11.5 6.976562 11.070312 7.253906 C 10.636719 7.527344 10.222656 7.828125 9.828125 8.152344 C 9.429688 8.476562 9.054688 8.824219 8.695312 9.191406 C 8.339844 9.558594 8.003906 9.945312 7.691406 10.351562 C 7.378906 10.757812 7.089844 11.179688 6.828125 11.617188 C 6.5625 12.058594 6.324219 12.511719 6.113281 12.976562 C 5.902344 13.441406 5.714844 13.917969 5.558594 14.40625 C 5.402344 14.894531 5.273438 15.390625 5.171875 15.890625 C 5.070312 16.394531 5 16.902344 4.957031 17.410156 C 4.914062 17.921875 4.902344 18.433594 4.917969 18.945312 C 4.933594 19.457031 4.976562 19.964844 5.050781 20.472656 C 5.128906 20.980469 5.230469 21.480469 5.363281 21.976562 C 5.496094 22.472656 5.652344 22.957031 5.84375 23.433594 C 6.03125 23.910156 6.242188 24.375 6.484375 24.828125 C 6.726562 25.277344 6.992188 25.714844 7.285156 26.136719 C 7.574219 26.558594 7.890625 26.960938 8.226562 27.347656 C 8.5625 27.734375 8.921875 28.097656 9.300781 28.441406 C 9.679688 28.785156 10.078125 29.109375 10.496094 29.40625 C 10.910156 29.707031 11.34375 29.980469 11.789062 30.230469 C 12.238281 30.476562 12.699219 30.703125 13.171875 30.898438 C 13.644531 31.09375 14.128906 31.261719 14.621094 31.402344 C 15.113281 31.542969 15.609375 31.65625 16.117188 31.742188 C 16.621094 31.824219 17.128906 31.878906 17.640625 31.902344 C 18.152344 31.929688 18.664062 31.925781 19.175781 31.890625 C 19.6875 31.859375 20.195312 31.796875 20.699219 31.707031 C 21.203125 31.613281 21.699219 31.492188 22.191406 31.34375 C 22.679688 31.195312 23.160156 31.019531 23.632812 30.816406 C 24.101562 30.613281 24.558594 30.382812 25.003906 30.128906 C 25.445312 29.871094 25.875 29.589844 26.285156 29.285156 C 26.695312 28.980469 27.089844 28.652344 27.464844 28.300781 C 27.835938 27.953125 28.191406 27.582031 28.519531 27.191406 C 28.851562 26.800781 29.160156 26.390625 29.445312 25.964844 C 29.730469 25.539062 29.988281 25.097656 30.222656 24.644531 C 30.457031 24.1875 30.664062 23.71875 30.84375 23.242188 C 31.023438 22.761719 31.175781 22.273438 31.300781 21.777344 C 31.425781 21.277344 31.519531 20.777344 31.589844 20.269531 C 31.65625 19.761719 31.691406 19.25 31.699219 18.738281 C 31.707031 18.226562 31.6875 17.714844 31.636719 17.203125 C 31.585938 16.695312 31.507812 16.191406 31.398438 15.6875 C 31.289062 15.1875 31.152344 14.695312 30.988281 14.210938 C 30.824219 13.726562 30.632812 13.25 30.410156 12.789062 C 30.191406 12.324219 29.949219 11.875 29.675781 11.441406 C 29.40625 11.007812 29.109375 10.589844 28.792969 10.1875 C 28.472656 9.789062 28.132812 9.40625 27.769531 9.042969 C 26.519531 7.792969 25.078125 6.828125 23.441406 6.148438 C 21.808594 5.472656 20.105469 5.128906 18.335938 5.128906 Z M 18.335938 5.128906 " fill-opacity="1" fill-rule="nonzero"/><g clip-path="url(#2e06dc95b4)"><path fill="#05343e" d="M 42.675781 44.75 C 42.15625 44.75 41.710938 44.5625 41.34375 44.195312 L 27.808594 30.667969 C 27.628906 30.488281 27.496094 30.285156 27.398438 30.054688 C 27.300781 29.824219 27.253906 29.582031 27.253906 29.332031 C 27.253906 29.082031 27.300781 28.839844 27.398438 28.609375 C 27.496094 28.378906 27.628906 28.171875 27.808594 27.996094 C 27.984375 27.820312 28.1875 27.683594 28.421875 27.585938 C 28.652344 27.492188 28.890625 27.441406 29.140625 27.441406 C 29.394531 27.441406 29.632812 27.492188 29.863281 27.585938 C 30.097656 27.683594 30.300781 27.820312 30.476562 27.996094 L 44.003906 41.535156 C 44.273438 41.804688 44.445312 42.125 44.519531 42.496094 C 44.59375 42.871094 44.554688 43.234375 44.410156 43.585938 C 44.265625 43.9375 44.035156 44.21875 43.71875 44.429688 C 43.402344 44.640625 43.054688 44.75 42.675781 44.75 Z M 42.675781 44.75 " fill-opacity="1" fill-rule="nonzero"/></g></g></g></svg>